<svg xmlns="http://www.w3.org/2000/svg" width="31" height="31" viewBox="0 0 31 31"><g><g><path fill="#646464" d="M31 15.5C31 24.06 24.06 31 15.5 31 6.94 31 0 24.06 0 15.5 0 6.94 6.94 0 15.5 0 24.06 0 31 6.94 31 15.5zm-2.906 0c0-6.956-5.639-12.594-12.594-12.594-6.956 0-12.594 5.638-12.594 12.594 0 5.804 3.93 10.677 9.272 12.136.017-1.187.04-2.712.038-2.893-.028-.018-2.958.842-4.218-1.23-.2-.338-.526-1.52-1.405-2.175-.032-.026-.68-.349-.74-.667-.007-.044.042-.137.106-.16.066-.024 1.134-.451 2.325 1.023.358.493 1.169 2.385 4.005 1.215.076-.291.228-.964 1.129-1.148-4.224-.492-6.847-2.503-7.503-6.232-.409-2.543 1.097-3.756 2.176-4.743-.164-.209-.702-1.964.136-3.821.907-.178 2.573.458 4.035 1.487 2.064-.728 5.46-.539 6.846 0 .658-.532 3.012-1.775 4.022-1.484.09.736.2 2.41.134 3.824 1.314 1.321 2.054 2.959 1.926 4.82-.153 3.27-2.283 5.744-6.76 6.12 1.128.758 1.178 1.945 1.217 2.412.006.609.106 2.111.195 3.324 4.813-1.77 8.252-6.38 8.252-11.808z"/></g></g></svg>