<svg xmlns="http://www.w3.org/2000/svg" width="31" height="31" viewBox="0 0 31 31"><g><g><path fill="#646464" d="M21.313 0C26.662 0 31 4.338 31 9.688v11.624C31 26.663 26.662 31 21.312 31H9.688C4.338 31 0 26.662 0 21.312V9.688C0 4.338 4.338 0 9.688 0zm6.78 9.688a6.789 6.789 0 0 0-6.78-6.782H9.688a6.789 6.789 0 0 0-6.782 6.781v11.626a6.789 6.789 0 0 0 6.781 6.78h11.626a6.789 6.789 0 0 0 6.78-6.78zM23.25 15.5a7.75 7.75 0 1 1-15.5 0 7.75 7.75 0 0 1 15.5 0zm-2.906 0a4.85 4.85 0 0 0-4.844-4.844 4.85 4.85 0 0 0-4.844 4.844 4.85 4.85 0 0 0 4.844 4.844 4.85 4.85 0 0 0 4.844-4.844zm2.455-8.331a1.033 1.033 0 1 1 2.065 0 1.033 1.033 0 0 1-2.065 0z"/></g></g></svg>