<svg xmlns="http://www.w3.org/2000/svg" width="32" height="32" viewBox="0 0 32 32"><g><g><path fill="#f7ec89" d="M27 0a5 5 0 0 1 5 5v22a5 5 0 0 1-5 5H5a5 5 0 0 1-5-5V5a5 5 0 0 1 5-5zM5 2a3 3 0 0 0-3 3v22a3 3 0 0 0 3 3h22a3 3 0 0 0 3-3V5a3 3 0 0 0-3-3zm7.25 10.904a.816.816 0 0 1 1.154-1.154L16 14.346 14.846 15.5zm7.5 5.192a.816.816 0 1 1-1.154 1.154L16 16.654l1.154-1.154zm0-5.192a.816.816 0 1 0-1.154-1.154L16 14.346l1.154 1.154zm-7.5 5.192a.816.816 0 0 0 1.154 1.154L16 16.654 14.846 15.5z"/></g></g></svg>